<svg xmlns="http://www.w3.org/2000/svg" xmlns:xlink="http://www.w3.org/1999/xlink" width="2000" zoomAndPan="magnify" viewBox="0 0 1500 225" height="300" preserveAspectRatio="xMidYMid meet" version="1.0"><rect x="-150" width="1800" fill="#ffffff" y="-22.5" height="270" fill-opacity="1"/><rect x="-150" width="1800" fill="#6366f1" y="-22.5" height="270" fill-opacity="1"/><path fill="#7c7ef4" d="M 776.5625 -146.757812 C 776.5625 -64.375 800.78125 -5.371094 890.625 32.738281 C 980.46875 70.851562 1067.273438 36.074219 1154.351562 56.011719 C 1241.433594 75.949219 1241.433594 204.390625 1323.4375 283.429688 C 1405.441406 362.472656 1578.347656 381.671875 1718.9375 301.480469 C 1859.523438 221.289062 1923.257812 34.054688 1881.25 -76.34375 C 1839.242188 -186.742188 1758.738281 -287.5 1370.3125 -287.5 C 981.886719 -287.5 776.5625 -229.136719 776.5625 -146.757812 Z M -443.75 186.054688 C -443.75 268.4375 -419.53125 327.441406 -329.6875 365.550781 C -239.84375 403.664062 -153.039062 368.886719 -65.960938 388.824219 C 21.121094 408.761719 21.121094 537.203125 103.125 616.242188 C 185.128906 695.285156 358.035156 714.484375 498.625 634.292969 C 639.210938 554.101562 702.945312 366.867188 660.9375 256.46875 C 618.929688 146.070312 538.425781 45.3125 150 45.3125 C -238.425781 45.3125 -443.75 103.675781 -443.75 186.054688 Z M -443.75 186.054688 " fill-opacity="1" fill-rule="evenodd"/></svg>