<svg xmlns="http://www.w3.org/2000/svg" xmlns:xlink="http://www.w3.org/1999/xlink" width="40" zoomAndPan="magnify" viewBox="0 0 30 30.000001" height="40" preserveAspectRatio="xMidYMid meet" version="1.0"><defs><clipPath id="5c5fdc8888"><path d="M 1.210938 4 L 28.789062 4 L 28.789062 25.847656 L 1.210938 25.847656 Z M 1.210938 4 " clip-rule="nonzero"/></clipPath><clipPath id="688b849aa3"><path d="M 1.210938 3.347656 L 28.789062 3.347656 L 28.789062 25.847656 L 1.210938 25.847656 Z M 1.210938 3.347656 " clip-rule="nonzero"/></clipPath></defs><g clip-path="url(#5c5fdc8888)"><path fill="#6366f1" d="M 28.132812 6.628906 L 28.132812 22.390625 C 28.132812 23.84375 26.957031 25.019531 25.507812 25.019531 L 4.492188 25.019531 C 3.042969 25.019531 1.867188 23.84375 1.867188 22.390625 L 1.867188 6.628906 C 1.867188 5.179688 3.042969 4.003906 4.492188 4.003906 L 25.507812 4.003906 C 26.957031 4.003906 28.132812 5.179688 28.132812 6.628906 Z M 28.132812 6.628906 " fill-opacity="1" fill-rule="nonzero"/></g><path fill="#ffffff" d="M 7.121094 20.421875 C 6.953125 20.421875 6.785156 20.355469 6.65625 20.230469 C 6.398438 19.972656 6.398438 19.554688 6.65625 19.300781 L 11.445312 14.511719 L 6.65625 9.722656 C 6.398438 9.464844 6.398438 9.050781 6.65625 8.792969 C 6.910156 8.535156 7.328125 8.535156 7.585938 8.792969 L 12.835938 14.046875 C 13.09375 14.304688 13.09375 14.71875 12.835938 14.976562 L 7.585938 20.230469 C 7.457031 20.355469 7.289062 20.421875 7.121094 20.421875 Z M 23.535156 19.765625 C 23.535156 19.402344 23.242188 19.109375 22.878906 19.109375 L 15 19.109375 C 14.636719 19.109375 14.34375 19.402344 14.34375 19.765625 C 14.34375 20.128906 14.636719 20.421875 15 20.421875 L 22.878906 20.421875 C 23.242188 20.421875 23.535156 20.128906 23.535156 19.765625 Z M 23.535156 19.765625 " fill-opacity="1" fill-rule="nonzero"/><g clip-path="url(#688b849aa3)"><path fill="#3730a3" d="M 25.507812 3.347656 L 4.492188 3.347656 C 2.683594 3.347656 1.210938 4.820312 1.210938 6.628906 L 1.210938 22.390625 C 1.210938 24.203125 2.683594 25.675781 4.492188 25.675781 L 25.507812 25.675781 C 27.316406 25.675781 28.789062 24.203125 28.789062 22.390625 L 28.789062 6.628906 C 28.789062 4.820312 27.316406 3.347656 25.507812 3.347656 Z M 27.476562 22.390625 C 27.476562 23.476562 26.59375 24.359375 25.507812 24.359375 L 4.492188 24.359375 C 3.40625 24.359375 2.523438 23.476562 2.523438 22.390625 L 2.523438 6.628906 C 2.523438 5.542969 3.40625 4.660156 4.492188 4.660156 L 25.507812 4.660156 C 26.59375 4.660156 27.476562 5.542969 27.476562 6.628906 Z M 27.476562 22.390625 " fill-opacity="1" fill-rule="nonzero"/></g></svg>